<svg xmlns="http://www.w3.org/2000/svg" viewBox="0 0 181.77 177.64">
  <g id="Layer_2" data-name="Layer 2">
    <g id="Layer_1-2" data-name="Layer 1">
      <g>
        <path d="M0,103.77V22.33a3.08,3.08,0,0,1,.66-.13c6.35,0,12.72-.31,19.05.06,15.14.89,26.67,8,33.91,21.37a40.67,40.67,0,0,1-6.78,48,37.68,37.68,0,0,1-24.37,11.78c-6,.51-12,.25-18.07.33C3,103.78,1.54,103.77,0,103.77Z"/>
        <path d="M180.42,22.19V103.7a5.5,5.5,0,0,1-.63.06c-6.27,0-12.54.16-18.8,0a40.36,40.36,0,0,1-37.94-31.16,40.82,40.82,0,0,1,25.71-48,39.62,39.62,0,0,1,13.6-2.38c5.55,0,11.1,0,16.65,0Z"/>
        <path d="M61.43,126c9.63-16.62,19.19-33.13,28.86-49.84L119,126Z"/>
        <path d="M61.42,0H119L90.29,49.86Z"/>
        <path d="M154.16,173c1,0,2.05,0,3.08,0a1,1,0,0,1,.65.39,2.87,2.87,0,0,0,3.46,1.3c1.26-.38,1.71-1.13,1.72-2.91,0-.36,0-.71-.06-1.25a5.38,5.38,0,0,1-5.06,1.34,5.33,5.33,0,0,1-3.3-2.21,7,7,0,0,1,.85-8.58c2.09-1.95,5-1.9,7.54.2l.19-1.24h3.5c.05.08.13.14.13.21,0,4.1.09,8.21-.05,12.32a4.47,4.47,0,0,1-4.13,4.77,10.27,10.27,0,0,1-5.78-.33A4.07,4.07,0,0,1,154.16,173Zm8.83-7.12a2.83,2.83,0,0,0-2.8-2.95,2.9,2.9,0,0,0-2.78,3,2.82,2.82,0,0,0,2.89,3A2.78,2.78,0,0,0,163,165.92Z"/>
        <path d="M0,171.82V155.53c2.8,0,5.58-.32,8.26.07a7.83,7.83,0,0,1,6.41,8.32,7.89,7.89,0,0,1-7,7.86C5.2,172,2.64,171.82,0,171.82ZM4,168.41c2.86.46,4.88-.29,6-2.16a5.31,5.31,0,0,0-.33-5.74A5.19,5.19,0,0,0,4,159Z"/>
        <path d="M46.42,165.68c-.19,4-3.59,6.7-8.07,6.59-4.81-.11-8.24-3.79-8.18-8.77A8.17,8.17,0,0,1,38.48,155c4.51,0,7.84,2.67,7.92,6.51-1.11,0-2.22,0-3.33,0a.94.94,0,0,1-.67-.48,3.93,3.93,0,0,0-4.47-2.41,4.26,4.26,0,0,0-3.54,3.58c-.8,3.31,1,6.34,4,6.51a3.91,3.91,0,0,0,4-2.3,1.5,1.5,0,0,1,1-.69C44.35,165.62,45.35,165.68,46.42,165.68Z"/>
        <path d="M14.55,155.3c1.49,0,2.79-.05,4.09,0a1.59,1.59,0,0,1,.93.75c.95,1.46,1.85,3,2.86,4.62,1-1.62,1.9-3.11,2.77-4.62a1.37,1.37,0,0,1,1.42-.8c1.11.06,2.23,0,3.62,0l-5.31,8.29c1.75,2.71,3.49,5.43,5.39,8.39-1.61,0-3,0-4.41,0-.25,0-.52-.44-.7-.73-.94-1.52-1.86-3.06-2.87-4.72-1,1.62-2,3.12-2.86,4.67A1.47,1.47,0,0,1,18,172c-1.07-.06-2.15,0-3.4,0,.19-.37.29-.65.45-.89,1.44-2.25,2.87-4.51,4.36-6.73a1.23,1.23,0,0,0,0-1.59c-1.39-2.09-2.74-4.21-4.11-6.32C15,156.14,14.85,155.8,14.55,155.3Z"/>
        <path d="M94.3,171.92H90.61V154.65h3.72V161a15.33,15.33,0,0,1,3-1.2c3-.5,5,1.23,5.18,4.48.14,2.5,0,5,0,7.64H98.72c0-1.33,0-2.7,0-4.08,0-.92,0-1.84,0-2.75-.1-1.44-.82-2.11-2.1-2.09a2.12,2.12,0,0,0-2.19,2.21c-.07,1.84,0,3.68,0,5.51C94.36,171.08,94.32,171.47,94.3,171.92Z"/>
        <path d="M168.08,160c1.3,0,2.42-.06,3.53,0a1.46,1.46,0,0,1,.92.81c.87,2,1.67,4,2.62,6.36l1.93-5.11c.79-2.1.78-2.1,3.06-2.1h1.63c-.21.57-.35,1-.52,1.43q-2.43,6.1-4.87,12.22c-1.3,3.22-3.13,4.22-6.67,3.6v-3.07c1.16,0,2.41.22,2.91-1.09a3,3,0,0,0,.12-2c-1.32-3.29-2.76-6.53-4.15-9.8C168.44,161,168.3,160.58,168.08,160Z"/>
        <path d="M145.76,172.27c-3.92,0-6.59-2.57-6.58-6.33a6.24,6.24,0,0,1,6.63-6.32c3.89,0,6.6,2.66,6.6,6.38S149.68,172.28,145.76,172.27ZM143,166a2.75,2.75,0,0,0,2.72,3,2.79,2.79,0,0,0,2.83-2.91,2.88,2.88,0,0,0-2.81-3.07A2.82,2.82,0,0,0,143,166Z"/>
        <path d="M118.57,165.93a6.22,6.22,0,0,1,6.63-6.31c3.88,0,6.6,2.67,6.59,6.39s-2.74,6.27-6.66,6.26S118.56,169.71,118.57,165.93Zm3.84,0a2.74,2.74,0,0,0,2.68,3,2.81,2.81,0,0,0,2.87-2.87,2.9,2.9,0,0,0-2.78-3.11A2.81,2.81,0,0,0,122.41,165.93Z"/>
        <path d="M104.9,160.06h3.6l.18,1.3a4.56,4.56,0,0,1,4-1.66c2.11.14,3.69,1.26,3.87,3.38.25,2.91.06,5.87.06,8.86h-3.57c0-1.7,0-3.36,0-5a14,14,0,0,0-.1-2.15,1.81,1.81,0,0,0-2-1.81,2,2,0,0,0-2.18,1.78,39.24,39.24,0,0,0-.13,4.06c0,1,0,2.05,0,3.12H104.9Z"/>
        <path d="M74.93,167H66.42c.19,2.12,2.21,3.36,3.74,2.12s3-.74,4.49-.9c-.36,2.75-3.37,4.48-6.79,4-3.59-.51-5.65-3.45-5.15-7.33.47-3.59,3.43-5.68,7.29-5.15C73.58,160.23,75.49,163,74.93,167Zm-3.7-2.4c-.29-1.57-1.06-2.23-2.43-2.2a2.18,2.18,0,0,0-2.32,2.2Z"/>
        <path d="M88.81,167.24c-.43,3.37-3,5.23-6.67,5A6.13,6.13,0,0,1,76.23,166c0-3.59,2.47-6.09,6.25-6.34a5.72,5.72,0,0,1,6.33,5c-1.09,0-2.16.05-3.23,0-.31,0-.56-.44-.88-.61a6.18,6.18,0,0,0-2.15-1c-1.55-.07-2.72,1.7-2.47,3.44A2.71,2.71,0,0,0,83.33,169c.3-.07.72-.18.84-.4C85.26,166.52,87.14,167.52,88.81,167.24Z"/>
        <path d="M61.27,163H58.64c0,1.73-.06,3.39.06,5,0,.35.69.78,1.14.94a5.42,5.42,0,0,0,1.63,0v3a28,28,0,0,1-4.1,0,2.92,2.92,0,0,1-2.52-3.06c-.09-1.9,0-3.81,0-5.8L53,162.9v-2.81l1.76-.18v-3.4h3.82V160h2.73Z"/>
        <path d="M133.66,154.64h3.59v17.27h-3.59Z"/>
        <path d="M52.65,169.79a2.37,2.37,0,0,1-2.48,2.36,2.39,2.39,0,0,1-2.38-2.47,2.43,2.43,0,1,1,4.86.11Z"/>
      </g>
    </g>
  </g>
</svg>
